<?xml version="1.0" encoding="UTF-8"?>
<svg xmlns="http://www.w3.org/2000/svg" xmlns:xlink="http://www.w3.org/1999/xlink" width="425px" height="290px" viewBox="0 0 424 290" version="1.1">
<g id="surface1">
<path style=" stroke:none;fill-rule:nonzero;fill:rgb(58.039216%,74.901961%,24.313725%);fill-opacity:1;" d="M 74.59375 87.789062 C 74.5 87.550781 74.355469 87.3125 74.164062 87.070312 C 73.972656 86.878906 73.78125 86.6875 73.542969 86.542969 C 73.0625 86.257812 72.488281 86.160156 71.960938 86.210938 C 71.671875 86.257812 71.433594 86.304688 71.144531 86.449219 C 70.90625 86.59375 70.667969 86.738281 70.476562 86.929688 C 70.285156 87.121094 70.140625 87.359375 69.996094 87.597656 C 69.851562 87.839844 69.757812 88.078125 69.707031 88.367188 C 69.707031 88.367188 65.636719 86.402344 66.691406 88.703125 C 67.457031 90.1875 68.460938 91.578125 69.613281 92.777344 C 69.613281 92.777344 74.402344 92.679688 75.792969 92.105469 C 76.558594 90.667969 77.183594 89.132812 77.566406 87.503906 C 78.09375 85.105469 74.882812 87.597656 74.59375 87.789062 "/>
<path style=" stroke:none;fill-rule:nonzero;fill:rgb(100%,100%,100%);fill-opacity:1;" d="M 90.214844 152.40625 C 90.214844 153.027344 90.214844 153.652344 90.164062 154.273438 C 90.070312 155.523438 89.832031 156.769531 89.496094 157.964844 C 89.304688 158.589844 89.113281 159.164062 88.921875 159.738281 C 88.679688 160.316406 88.441406 160.890625 88.152344 161.464844 C 87.867188 162.039062 87.578125 162.566406 87.195312 163.09375 C 86.8125 163.621094 86.476562 164.101562 86.09375 164.628906 C 84.894531 166.113281 83.507812 167.359375 81.972656 168.464844 C 81.445312 168.800781 80.917969 169.132812 80.390625 169.421875 C 79.816406 169.710938 79.289062 169.996094 78.714844 170.238281 C 78.140625 170.476562 77.566406 170.714844 76.941406 170.859375 C 76.367188 171.050781 75.746094 171.195312 75.121094 171.339844 C 74.5 171.433594 73.875 171.578125 73.253906 171.628906 C 72.632812 171.675781 72.007812 171.722656 71.386719 171.722656 C 70.761719 171.722656 70.140625 171.675781 69.515625 171.628906 C 68.894531 171.578125 68.269531 171.484375 67.648438 171.339844 C 67.027344 171.195312 66.402344 171.050781 65.828125 170.859375 C 65.253906 170.667969 64.628906 170.476562 64.054688 170.238281 C 63.480469 169.996094 62.90625 169.710938 62.378906 169.421875 C 61.851562 169.132812 61.277344 168.800781 60.796875 168.464844 C 60.269531 168.128906 59.792969 167.746094 59.3125 167.3125 C 58.832031 166.929688 58.355469 166.5 57.921875 166.066406 C 57.492188 165.636719 57.109375 165.15625 56.726562 164.675781 C 56.339844 164.199219 55.957031 163.671875 55.625 163.144531 C 55.289062 162.617188 54.953125 162.089844 54.664062 161.511719 C 54.378906 160.9375 54.136719 160.363281 53.898438 159.789062 C 53.660156 159.210938 53.46875 158.589844 53.277344 158.015625 C 53.082031 157.390625 52.988281 156.816406 52.84375 156.191406 C 52.75 155.570312 52.652344 154.945312 52.605469 154.324219 C 52.558594 153.699219 52.558594 153.078125 52.558594 152.453125 C 52.558594 152.117188 52.605469 151.78125 52.75 151.445312 C 52.890625 151.113281 53.082031 150.824219 53.324219 150.585938 C 54.328125 149.578125 56.007812 149.578125 57.011719 150.585938 C 57.492188 151.0625 57.777344 151.734375 57.777344 152.40625 C 57.777344 152.835938 57.777344 153.316406 57.828125 153.746094 C 57.875 154.179688 57.921875 154.660156 58.019531 155.089844 C 58.113281 155.523438 58.210938 155.953125 58.355469 156.382812 C 58.496094 156.816406 58.640625 157.246094 58.832031 157.628906 C 58.976562 158.0625 59.167969 158.445312 59.40625 158.828125 C 59.597656 159.210938 59.839844 159.597656 60.078125 159.980469 C 60.316406 160.363281 60.605469 160.699219 60.894531 161.035156 C 61.179688 161.371094 61.46875 161.703125 61.804688 162.039062 C 62.140625 162.375 62.425781 162.664062 62.808594 162.953125 C 63.191406 163.238281 63.527344 163.476562 63.863281 163.765625 C 64.246094 164.003906 64.628906 164.246094 65.011719 164.4375 C 65.398438 164.628906 65.828125 164.820312 66.210938 165.011719 C 66.59375 165.203125 67.074219 165.347656 67.457031 165.445312 C 67.886719 165.585938 68.320312 165.683594 68.75 165.78125 C 70.523438 166.113281 72.34375 166.113281 74.066406 165.78125 C 74.5 165.683594 74.929688 165.585938 75.363281 165.445312 C 75.792969 165.300781 76.222656 165.15625 76.609375 165.011719 C 77.039062 164.820312 77.421875 164.628906 77.804688 164.4375 C 78.1875 164.246094 78.570312 164.003906 78.953125 163.765625 C 79.339844 163.527344 79.671875 163.238281 80.007812 162.953125 C 80.34375 162.664062 80.679688 162.375 81.015625 162.039062 C 81.351562 161.703125 81.636719 161.371094 81.925781 161.035156 C 82.210938 160.699219 82.5 160.316406 82.738281 159.980469 C 82.980469 159.597656 83.21875 159.210938 83.410156 158.828125 C 83.601562 158.445312 83.792969 158.015625 83.984375 157.628906 C 84.175781 157.199219 84.320312 156.816406 84.417969 156.382812 C 84.558594 155.953125 84.65625 155.523438 84.753906 155.089844 C 84.945312 154.226562 84.992188 153.316406 85.039062 152.40625 C 85.039062 151.734375 85.328125 151.0625 85.804688 150.585938 C 86.574219 149.816406 87.675781 149.625 88.632812 150.007812 C 88.96875 150.152344 89.253906 150.34375 89.496094 150.585938 C 89.925781 151.113281 90.164062 151.78125 90.214844 152.40625 "/>
<path style=" stroke:none;fill-rule:nonzero;fill:rgb(58.039216%,74.901961%,24.313725%);fill-opacity:1;" d="M 85.804688 120.625 L 83.316406 99.101562 C 83.21875 98.625 82.929688 98.242188 82.546875 98 L 73.875 93.832031 L 71.003906 94.167969 C 71.003906 94.167969 64.007812 99.964844 64.054688 99.964844 L 63.863281 100.15625 C 63.433594 100.542969 63.289062 101.164062 63.382812 101.691406 L 65.828125 122.925781 Z M 85.804688 120.625 "/>
<path style=" stroke:none;fill-rule:nonzero;fill:rgb(16.470588%,66.666667%,35.294118%);fill-opacity:1;" d="M 81.828125 92.96875 C 81.636719 91.433594 81.300781 89.949219 80.871094 88.460938 L 74.691406 91.914062 C 74.546875 91.769531 74.402344 91.671875 74.210938 91.53125 C 74.019531 91.433594 73.828125 91.339844 73.683594 91.289062 C 73.492188 91.242188 73.300781 91.195312 73.109375 91.144531 C 72.917969 91.144531 72.726562 91.144531 72.488281 91.144531 C 72.296875 91.144531 72.105469 91.195312 71.914062 91.242188 C 71.527344 91.339844 71.144531 91.578125 70.859375 91.816406 C 70.714844 91.960938 70.570312 92.105469 70.425781 92.25 L 63.863281 90.140625 C 63.625 91.722656 63.574219 93.351562 63.671875 94.980469 C 63.863281 96.46875 64.246094 97.90625 64.820312 99.246094 L 70.570312 95.988281 C 70.714844 96.179688 70.90625 96.324219 71.097656 96.46875 C 71.289062 96.609375 71.480469 96.707031 71.71875 96.800781 C 71.960938 96.898438 72.152344 96.945312 72.390625 96.996094 C 72.632812 97.042969 72.871094 97.042969 73.109375 96.996094 C 73.347656 96.945312 73.589844 96.898438 73.78125 96.851562 C 74.019531 96.753906 74.210938 96.660156 74.402344 96.515625 C 74.59375 96.371094 74.785156 96.226562 74.929688 96.035156 C 75.074219 95.84375 75.21875 95.652344 75.363281 95.460938 L 81.78125 97.570312 C 81.925781 96.035156 81.925781 94.5 81.828125 92.96875 "/>
<path style=" stroke:none;fill-rule:nonzero;fill:rgb(88.627451%,7.058824%,49.803922%);fill-opacity:1;" d="M 76.609375 126.042969 C 89.253906 125.273438 101.183594 124.605469 106.597656 124.269531 L 107.078125 124.269531 L 109.328125 115.257812 C 109.519531 114.441406 109.234375 113.628906 108.5625 113.101562 C 108.371094 112.957031 108.085938 112.8125 107.84375 112.765625 L 80.105469 105.765625 C 79.867188 105.71875 79.578125 105.671875 79.289062 105.71875 C 78.476562 105.863281 77.804688 106.4375 77.613281 107.253906 L 72.824219 126.234375 L 76.609375 126.042969 "/>
<path style=" stroke:none;fill-rule:nonzero;fill:rgb(94.509804%,56.862745%,13.72549%);fill-opacity:1;" d="M 93.949219 125.035156 L 97.976562 110.511719 L 89.972656 108.5 L 85.277344 125.5625 L 93.949219 125.035156 "/>
<path style=" stroke:none;fill-rule:nonzero;fill:rgb(94.509804%,56.862745%,13.72549%);fill-opacity:1;" d="M 37.65625 128.390625 C 37.847656 128.34375 38.039062 128.34375 38.230469 128.296875 C 44.796875 127.910156 60.941406 126.953125 76.558594 126.042969 L 77.566406 125.996094 L 74.019531 109.9375 C 73.972656 109.695312 73.875 109.457031 73.734375 109.21875 C 73.589844 109.027344 73.398438 108.832031 73.15625 108.691406 C 72.917969 108.546875 72.679688 108.449219 72.4375 108.402344 C 72.199219 108.355469 71.914062 108.355469 71.671875 108.402344 L 36.9375 116.070312 C 36.699219 116.121094 36.460938 116.214844 36.21875 116.359375 C 36.027344 116.503906 35.835938 116.695312 35.691406 116.933594 C 35.550781 117.175781 35.453125 117.414062 35.40625 117.652344 C 35.355469 117.894531 35.355469 118.179688 35.40625 118.421875 Z M 104.828125 107.828125 C 104.25 108.640625 101.710938 108.738281 98.644531 108.449219 C 100.515625 106.917969 102.957031 105.476562 104.15625 106.53125 C 104.828125 106.964844 104.96875 107.585938 104.828125 107.828125 M 85.472656 104.328125 C 85.136719 104.039062 85.136719 103.511719 85.375 103.175781 C 85.566406 102.984375 85.804688 102.84375 86.046875 102.746094 C 87.578125 102.316406 89.253906 104.617188 90.308594 106.773438 C 88.632812 106.199219 86.957031 105.382812 85.472656 104.328125 M 106.457031 106.101562 C 106.214844 105.671875 105.878906 105.285156 105.542969 104.953125 C 102.429688 102.265625 97.59375 106.4375 95.964844 108.019531 C 95.820312 107.78125 95.628906 107.539062 95.386719 107.394531 C 95.148438 107.203125 94.910156 107.109375 94.621094 107.011719 C 94.335938 106.917969 94.046875 106.917969 93.757812 106.964844 C 93.472656 107.011719 93.183594 107.109375 92.945312 107.253906 C 92.035156 105 89.398438 99.628906 85.566406 100.734375 C 85.085938 100.875 84.65625 101.117188 84.226562 101.402344 C 82.929688 102.363281 82.789062 103.371094 82.882812 104.039062 C 83.410156 106.867188 89.640625 108.832031 91.792969 109.457031 C 91.84375 109.695312 91.890625 109.886719 91.988281 110.128906 C 92.179688 110.558594 92.511719 110.894531 92.945312 111.132812 C 93.375 111.375 93.808594 111.46875 94.285156 111.421875 C 94.527344 111.375 94.765625 111.328125 94.957031 111.230469 C 95.386719 111.039062 95.722656 110.703125 95.964844 110.320312 L 96.058594 110.320312 C 98.117188 110.609375 104.921875 111.46875 106.597656 109.027344 C 106.980469 108.449219 107.269531 107.445312 106.457031 106.101562 "/>
<path style=" stroke:none;fill-rule:nonzero;fill:rgb(100%,100%,100%);fill-opacity:1;" d="M 63.335938 106.53125 L 63.433594 106.484375 L 63.335938 106.53125 "/>
<path style=" stroke:none;fill-rule:nonzero;fill:rgb(87.45098%,13.333333%,15.686275%);fill-opacity:1;" d="M 64.292969 126.808594 L 60.75 110.75 L 48.148438 113.578125 L 51.261719 127.574219 L 64.292969 126.808594 "/>
<path style=" stroke:none;fill-rule:nonzero;fill:rgb(87.45098%,13.333333%,15.686275%);fill-opacity:1;" d="M 58.113281 109.648438 C 58.929688 107.011719 60.367188 104.039062 62.1875 104.28125 C 62.472656 104.328125 62.761719 104.425781 63 104.519531 C 63.382812 104.710938 63.625 104.953125 63.625 105.046875 C 63.671875 106.003906 61.277344 107.921875 58.113281 109.648438 M 42.925781 110.222656 C 42.785156 110.082031 42.734375 109.886719 42.734375 109.648438 C 42.734375 109.457031 42.785156 109.265625 42.925781 109.074219 C 43.117188 108.832031 43.308594 108.640625 43.550781 108.449219 C 45.128906 107.445312 47.765625 109.457031 49.683594 111.519531 C 46.089844 111.375 43.5 110.941406 42.925781 110.222656 M 64.246094 102.21875 C 63.71875 101.929688 63.191406 101.789062 62.617188 101.691406 C 58.113281 101.164062 56.101562 107.394531 55.335938 110.367188 C 54.855469 110.128906 54.328125 110.082031 53.851562 110.175781 C 53.609375 110.222656 53.371094 110.320312 53.132812 110.464844 C 52.941406 110.609375 52.75 110.800781 52.558594 110.992188 C 50.640625 108.691406 45.992188 103.847656 42.160156 106.339844 C 41.679688 106.675781 41.25 107.058594 40.914062 107.539062 C 39.765625 109.074219 39.957031 110.222656 40.339844 110.941406 C 41.871094 114.011719 49.96875 114.058594 52.414062 113.960938 L 52.988281 113.960938 C 53.132812 114.058594 53.226562 114.15625 53.371094 114.203125 C 53.515625 114.25 53.660156 114.296875 53.800781 114.347656 C 53.945312 114.394531 54.136719 114.394531 54.28125 114.394531 C 54.425781 114.394531 54.617188 114.394531 54.761719 114.347656 C 54.90625 114.296875 55.046875 114.25 55.191406 114.203125 C 55.335938 114.15625 55.480469 114.058594 55.574219 113.960938 C 55.71875 113.867188 55.816406 113.769531 55.910156 113.675781 C 56.007812 113.578125 56.101562 113.433594 56.199219 113.292969 L 56.773438 113.050781 C 58.976562 112.046875 66.210938 108.402344 66.257812 104.953125 C 66.257812 104.136719 65.921875 102.984375 64.199219 102.125 "/>
<path style=" stroke:none;fill-rule:nonzero;fill:rgb(11.764706%,57.647059%,81.960784%);fill-opacity:1;" d="M 110.046875 200.722656 C 106.40625 184.28125 104.011719 154.082031 109.1875 128.628906 C 109.136719 128.007812 108.851562 127.382812 108.417969 126.90625 C 108.179688 126.664062 107.941406 126.472656 107.652344 126.378906 C 107.367188 126.234375 107.03125 126.1875 106.742188 126.136719 C 94.667969 126.855469 50.257812 129.492188 38.421875 130.164062 C 38.089844 130.164062 37.753906 130.261719 37.464844 130.402344 C 37.179688 130.546875 36.890625 130.738281 36.699219 130.980469 C 36.460938 131.21875 36.316406 131.507812 36.171875 131.792969 C 36.027344 132.082031 35.980469 132.417969 35.980469 132.753906 C 35.980469 132.800781 35.980469 132.847656 35.980469 132.898438 C 38.664062 148.378906 39.574219 175.652344 34.0625 201.011719 C 34.0625 201.296875 34.113281 201.585938 34.253906 201.875 C 34.351562 202.160156 34.542969 202.402344 34.734375 202.640625 C 35.117188 203.070312 35.644531 203.40625 36.21875 203.503906 L 107.941406 203.503906 C 108.226562 203.457031 108.515625 203.359375 108.800781 203.214844 C 109.089844 203.070312 109.328125 202.878906 109.519531 202.640625 C 109.90625 202.160156 110.144531 201.585938 110.144531 200.960938 C 110.046875 200.867188 110.046875 200.820312 110.046875 200.722656 "/>
<path style=" stroke:none;fill-rule:nonzero;fill:rgb(100%,100%,100%);fill-opacity:1;" d="M 90.164062 152.742188 C 90.164062 153.363281 90.117188 153.941406 90.023438 154.5625 C 89.972656 155.136719 89.832031 155.761719 89.734375 156.335938 C 89.640625 156.910156 89.445312 157.535156 89.253906 158.0625 C 89.0625 158.589844 88.871094 159.210938 88.632812 159.738281 C 88.394531 160.265625 88.105469 160.84375 87.816406 161.371094 C 87.53125 161.898438 87.195312 162.425781 86.859375 162.902344 C 86.523438 163.382812 86.140625 163.863281 85.757812 164.339844 C 85.375 164.820312 84.945312 165.253906 84.511719 165.683594 C 84.082031 166.113281 83.601562 166.5 83.171875 166.882812 C 82.691406 167.265625 82.210938 167.601562 81.6875 167.9375 C 81.160156 168.273438 80.679688 168.558594 80.105469 168.847656 C 79.578125 169.132812 79.003906 169.375 78.476562 169.613281 C 77.902344 169.855469 77.324219 170.046875 76.75 170.238281 C 76.175781 170.429688 75.601562 170.574219 74.980469 170.667969 C 74.402344 170.765625 73.78125 170.859375 73.15625 170.910156 C 72.535156 170.957031 71.960938 171.003906 71.335938 171.003906 C 70.714844 171.003906 70.140625 170.957031 69.515625 170.910156 C 68.894531 170.859375 68.320312 170.765625 67.695312 170.667969 C 67.074219 170.574219 66.5 170.429688 65.921875 170.238281 C 65.347656 170.046875 64.773438 169.855469 64.199219 169.613281 C 63.625 169.375 63.097656 169.132812 62.570312 168.847656 C 62.042969 168.558594 61.515625 168.273438 60.988281 167.9375 C 60.460938 167.601562 59.984375 167.265625 59.503906 166.882812 C 59.023438 166.5 58.59375 166.113281 58.164062 165.683594 C 57.730469 165.253906 57.300781 164.820312 56.917969 164.339844 C 56.535156 163.863281 56.148438 163.382812 55.816406 162.902344 C 55.480469 162.425781 55.144531 161.898438 54.855469 161.371094 C 54.570312 160.84375 54.28125 160.316406 54.042969 159.738281 C 53.800781 159.164062 53.609375 158.636719 53.417969 158.0625 C 53.226562 157.488281 53.082031 156.910156 52.941406 156.335938 C 52.796875 155.761719 52.699219 155.136719 52.652344 154.5625 C 52.558594 153.988281 52.558594 153.363281 52.507812 152.742188 C 52.507812 152.40625 52.558594 152.070312 52.699219 151.734375 C 52.84375 151.398438 53.035156 151.160156 53.277344 150.871094 C 53.515625 150.632812 53.800781 150.441406 54.136719 150.296875 C 55.429688 149.769531 56.964844 150.390625 57.492188 151.6875 C 57.636719 152.023438 57.683594 152.359375 57.683594 152.695312 C 57.683594 153.125 57.683594 153.605469 57.730469 154.035156 C 57.777344 154.46875 57.828125 154.898438 57.921875 155.378906 C 58.019531 155.808594 58.113281 156.242188 58.257812 156.671875 C 58.402344 157.101562 58.546875 157.535156 58.6875 157.917969 C 58.832031 158.347656 59.074219 158.734375 59.265625 159.117188 C 59.457031 159.5 59.695312 159.882812 59.933594 160.265625 C 60.175781 160.652344 60.460938 160.984375 60.75 161.320312 C 61.035156 161.65625 61.324219 161.992188 61.660156 162.328125 C 61.996094 162.664062 62.28125 162.953125 62.664062 163.238281 C 63.050781 163.527344 63.382812 163.765625 63.71875 164.054688 C 64.101562 164.292969 64.484375 164.53125 64.871094 164.726562 C 65.253906 164.917969 65.636719 165.109375 66.066406 165.300781 C 66.5 165.492188 66.882812 165.636719 67.3125 165.730469 C 67.746094 165.875 68.175781 165.972656 68.605469 166.066406 C 69.039062 166.164062 69.46875 166.210938 69.949219 166.257812 C 70.378906 166.304688 70.859375 166.304688 71.289062 166.304688 C 71.71875 166.304688 72.199219 166.304688 72.632812 166.257812 C 73.0625 166.210938 73.492188 166.164062 73.972656 166.066406 C 74.453125 165.972656 74.835938 165.875 75.265625 165.730469 C 75.695312 165.585938 76.128906 165.445312 76.511719 165.300781 C 76.941406 165.109375 77.324219 164.917969 77.710938 164.726562 C 78.09375 164.53125 78.476562 164.292969 78.859375 164.054688 C 79.242188 163.8125 79.578125 163.527344 79.914062 163.238281 C 80.25 162.953125 80.582031 162.664062 80.917969 162.328125 C 81.253906 161.992188 81.542969 161.703125 81.828125 161.320312 C 82.117188 160.9375 82.355469 160.601562 82.644531 160.265625 C 82.929688 159.929688 83.125 159.5 83.316406 159.117188 C 83.507812 158.734375 83.699219 158.300781 83.890625 157.917969 C 84.082031 157.488281 84.226562 157.101562 84.320312 156.671875 C 84.464844 156.242188 84.558594 155.808594 84.65625 155.378906 C 84.753906 154.945312 84.800781 154.515625 84.847656 154.035156 C 84.894531 153.554688 84.894531 153.125 84.894531 152.695312 C 84.894531 152.023438 85.183594 151.351562 85.664062 150.871094 C 85.902344 150.632812 86.1875 150.441406 86.523438 150.296875 C 87.148438 150.058594 87.867188 150.058594 88.488281 150.296875 C 88.824219 150.441406 89.0625 150.632812 89.351562 150.871094 C 89.589844 151.113281 89.78125 151.398438 89.925781 151.734375 C 90.117188 152.070312 90.164062 152.40625 90.164062 152.742188 M 55.289062 145.261719 C 54.953125 145.261719 54.617188 145.214844 54.28125 145.070312 C 53.945312 144.929688 53.707031 144.785156 53.417969 144.542969 C 52.699219 143.824219 52.460938 142.675781 52.84375 141.714844 C 53.082031 141.09375 53.609375 140.566406 54.234375 140.328125 C 54.570312 140.183594 54.90625 140.132812 55.238281 140.132812 C 55.574219 140.132812 55.910156 140.183594 56.246094 140.328125 C 56.582031 140.46875 56.820312 140.660156 57.109375 140.902344 C 57.347656 141.140625 57.539062 141.429688 57.683594 141.765625 C 58.210938 143.105469 57.585938 144.59375 56.246094 145.167969 C 55.957031 145.214844 55.625 145.261719 55.289062 145.261719 M 87.578125 145.121094 C 87.242188 145.121094 86.859375 145.070312 86.574219 144.929688 C 86.238281 144.785156 85.949219 144.640625 85.710938 144.402344 C 85.472656 144.160156 85.277344 143.875 85.136719 143.539062 C 84.558594 142.242188 85.183594 140.710938 86.476562 140.132812 C 86.8125 139.992188 87.242188 139.894531 87.625 139.941406 C 87.960938 139.941406 88.296875 140.039062 88.585938 140.183594 C 88.871094 140.328125 89.160156 140.519531 89.398438 140.757812 C 89.640625 140.996094 89.832031 141.285156 89.925781 141.574219 C 90.164062 142.195312 90.164062 142.867188 89.925781 143.488281 C 89.496094 144.449219 88.585938 145.070312 87.578125 145.121094 "/>
<path style=" stroke:none;fill-rule:nonzero;fill:rgb(11.764706%,57.647059%,81.960784%);fill-opacity:1;" d="M 342.074219 95.796875 L 341.882812 96.082031 L 341.882812 203.503906 L 343.03125 203.503906 C 350.21875 203.503906 357.359375 199.910156 360.375 194.828125 L 360.519531 194.585938 L 360.519531 86.929688 L 359.371094 86.929688 C 352.566406 86.929688 345.761719 90.378906 342.074219 95.796875 Z M 202.082031 95.796875 L 201.890625 96.082031 L 201.890625 203.503906 L 203.039062 203.503906 C 210.226562 203.503906 217.367188 199.910156 220.382812 194.828125 L 220.527344 194.585938 L 220.527344 86.929688 L 219.425781 86.929688 C 212.621094 86.929688 205.820312 90.378906 202.082031 95.796875 Z M 153.789062 132.945312 L 153.550781 132.945312 L 153.359375 133.039062 C 148.855469 135.628906 144.972656 140.710938 143.539062 146.03125 L 142.914062 148.332031 L 145.117188 147.371094 C 147.898438 146.125 156.710938 146.175781 163.707031 150.679688 C 169.648438 154.46875 172.859375 160.507812 172.953125 168.222656 C 172.953125 186.582031 159.828125 190.320312 156.28125 190.320312 C 142.292969 190.320312 139.128906 174.214844 139.128906 168.558594 L 139.128906 106.628906 L 137.980469 106.628906 C 131.175781 106.628906 124.804688 109.839844 120.730469 115.257812 L 120.492188 115.542969 L 120.492188 167.984375 C 120.492188 175.796875 123.65625 186.964844 132.566406 194.875 C 139.367188 200.914062 146.890625 203.742188 156.28125 203.742188 C 166.054688 203.742188 191.398438 197.367188 191.398438 168.273438 C 191.304688 159.546875 188.8125 152.5 183.589844 146.078125 C 174.34375 134.765625 159.203125 132.273438 153.789062 132.945312 Z M 231.5 141.859375 L 231.257812 142.148438 L 231.257812 203.742188 L 232.410156 203.742188 C 239.164062 203.695312 245.535156 200.675781 249.753906 195.449219 L 249.992188 195.164062 L 249.992188 133.28125 L 248.84375 133.28125 C 242.039062 133.28125 235.621094 136.445312 231.5 141.859375 Z M 240.648438 106.675781 C 240.027344 106.675781 239.402344 106.726562 238.828125 106.867188 C 238.207031 106.964844 237.632812 107.15625 237.058594 107.394531 C 236.480469 107.636719 235.953125 107.921875 235.429688 108.257812 C 234.902344 108.59375 234.421875 108.976562 233.992188 109.410156 C 233.558594 109.839844 233.175781 110.320312 232.839844 110.847656 C 232.503906 111.375 232.21875 111.902344 231.976562 112.476562 C 231.257812 114.203125 231.066406 116.070312 231.453125 117.894531 C 231.546875 118.515625 231.738281 119.089844 231.976562 119.667969 C 232.21875 120.242188 232.503906 120.769531 232.839844 121.296875 C 233.511719 122.304688 234.421875 123.214844 235.429688 123.886719 C 238.589844 125.996094 242.664062 125.996094 245.824219 123.886719 C 246.832031 123.214844 247.742188 122.351562 248.410156 121.296875 C 248.746094 120.769531 249.035156 120.242188 249.273438 119.667969 C 250.230469 117.367188 250.230469 114.777344 249.273438 112.523438 C 249.035156 111.949219 248.746094 111.421875 248.410156 110.894531 C 248.074219 110.367188 247.691406 109.886719 247.261719 109.457031 C 246.832031 109.027344 246.351562 108.640625 245.824219 108.304688 C 245.296875 107.972656 244.769531 107.683594 244.195312 107.445312 C 243.621094 107.203125 243.046875 107.011719 242.421875 106.917969 C 241.894531 106.773438 241.273438 106.675781 240.648438 106.675781 Z M 371.441406 141.714844 L 371.203125 142.003906 L 371.203125 203.597656 L 372.351562 203.597656 C 379.109375 203.550781 385.433594 200.53125 389.695312 195.304688 L 389.9375 195.019531 L 389.9375 133.136719 L 388.785156 133.136719 C 382.03125 133.183594 375.609375 136.347656 371.441406 141.714844 Z M 380.640625 125.273438 C 381.886719 125.273438 383.085938 125.035156 384.234375 124.554688 C 384.808594 124.316406 385.335938 124.027344 385.863281 123.695312 C 386.871094 123.023438 387.78125 122.113281 388.449219 121.105469 C 390.175781 118.515625 390.511719 115.210938 389.3125 112.332031 C 389.074219 111.757812 388.785156 111.230469 388.449219 110.703125 C 387.0625 108.640625 384.953125 107.203125 382.511719 106.726562 C 381.3125 106.484375 380.066406 106.484375 378.871094 106.726562 C 378.246094 106.867188 377.671875 107.011719 377.097656 107.253906 C 376.523438 107.492188 375.996094 107.78125 375.46875 108.113281 C 374.460938 108.785156 373.550781 109.695312 372.878906 110.703125 C 370.773438 113.867188 370.773438 117.941406 372.878906 121.105469 C 373.550781 122.113281 374.460938 123.023438 375.46875 123.695312 C 376.953125 124.746094 378.773438 125.273438 380.640625 125.273438 Z M 293.734375 132.945312 L 293.496094 132.945312 L 293.300781 133.039062 C 288.800781 135.628906 284.917969 140.710938 283.480469 146.03125 L 282.808594 148.332031 L 285.015625 147.371094 C 287.792969 146.125 296.609375 146.175781 303.601562 150.679688 C 309.542969 154.46875 312.753906 160.507812 312.851562 168.222656 C 312.851562 186.582031 299.722656 190.320312 296.175781 190.320312 C 282.1875 190.320312 279.027344 174.214844 279.027344 168.558594 L 279.027344 106.628906 L 277.875 106.628906 C 271.074219 106.628906 264.699219 109.839844 260.628906 115.257812 L 260.390625 115.542969 L 260.390625 115.929688 C 260.390625 120.003906 260.390625 167.984375 260.390625 167.984375 C 260.390625 175.796875 263.550781 186.964844 272.460938 194.875 C 279.265625 200.914062 286.785156 203.742188 296.175781 203.742188 C 305.949219 203.742188 331.292969 197.367188 331.292969 168.273438 C 331.199219 159.546875 328.753906 152.5 323.535156 146.078125 C 314.285156 134.765625 299.195312 132.273438 293.734375 132.945312 Z M 293.734375 132.945312 "/>
</g>
</svg>
