<?xml version="1.0" encoding="UTF-8"?>
<svg xmlns="http://www.w3.org/2000/svg" xmlns:xlink="http://www.w3.org/1999/xlink" width="425px" height="100px" viewBox="0 0 425 100" version="1.1">
<g id="surface1">
<path style=" stroke:none;fill-rule:nonzero;fill:rgb(0%,66.666667%,7.45098%);fill-opacity:1;" d="M 31.3125 50.027344 C 31.3125 39.714844 39.703125 31.351562 50.0625 31.351562 C 60.421875 31.351562 68.816406 39.710938 68.816406 50.027344 C 68.816406 60.351562 60.425781 68.710938 50.066406 68.710938 C 39.707031 68.710938 31.3125 60.347656 31.3125 50.03125 "/>
<path style=" stroke:none;fill-rule:nonzero;fill:rgb(0%,66.666667%,7.45098%);fill-opacity:1;" d="M 50.0625 0.222656 C 22.445312 0.222656 0.0625 22.519531 0.0625 50.03125 C 0.0625 70.683594 12.578125 88.3125 30.753906 95.980469 C 33.339844 97.070312 36.28125 96.941406 38.761719 95.628906 C 41.246094 94.316406 43.007812 91.957031 43.5625 89.207031 C 44.441406 84.839844 42.105469 80.460938 37.992188 78.753906 L 37.992188 78.75 C 26.730469 74.046875 18.8125 62.964844 18.8125 50.03125 C 18.8125 32.835938 32.800781 18.894531 50.0625 18.894531 C 67.328125 18.894531 81.320312 32.835938 81.320312 50.03125 C 81.320312 62.960938 73.402344 74.046875 62.136719 78.746094 L 62.136719 78.753906 C 58.019531 80.464844 55.6875 84.84375 56.566406 89.210938 C 57.445312 93.582031 61.289062 96.71875 65.746094 96.703125 C 66.988281 96.695312 68.21875 96.449219 69.367188 95.980469 C 87.542969 88.308594 100.0625 70.675781 100.0625 50.027344 C 100.0625 22.515625 77.675781 0.214844 50.0625 0.214844 "/>
<path style=" stroke:none;fill-rule:nonzero;fill:rgb(0%,0%,0%);fill-opacity:1;" d="M 245.144531 44.503906 C 245.144531 35.492188 238.941406 28.792969 229.269531 28.792969 C 219.59375 28.792969 213.394531 35.496094 213.394531 44.507812 C 213.394531 53.511719 219.597656 60.222656 229.269531 60.222656 C 238.941406 60.222656 245.144531 53.515625 245.144531 44.507812 M 197.828125 44.507812 C 197.828125 27.957031 210.972656 15.175781 229.269531 15.175781 C 247.671875 15.175781 260.710938 27.957031 260.710938 44.507812 C 260.710938 61.058594 247.671875 73.835938 229.269531 73.835938 C 210.976562 73.835938 197.828125 61.058594 197.828125 44.507812 M 255.367188 85.820312 L 263.777344 85.820312 C 268.300781 85.820312 269.878906 84.144531 269.878906 80.164062 L 269.878906 15.191406 L 285.4375 15.191406 L 285.4375 80.371094 C 285.4375 94.097656 279.867188 99.960938 265.042969 99.960938 L 255.363281 99.960938 L 255.363281 85.816406 Z M 172.882812 47.535156 C 172.882812 54.394531 165.894531 59.871094 157.007812 59.871094 C 146.957031 59.871094 140.710938 53.96875 140.710938 44.164062 C 140.710938 35.101562 147.378906 28.878906 157.644531 28.878906 C 165.792969 28.878906 172.882812 34.570312 172.882812 41 Z M 173.519531 15.15625 L 173.519531 21.707031 L 173.304688 21.707031 C 169.28125 17.492188 162.617188 15.171875 154.683594 15.171875 C 137.644531 15.171875 125.050781 27.820312 125.050781 44.160156 C 125.050781 61.136719 137.960938 73.574219 155.210938 73.574219 C 162.933594 73.574219 169.390625 71.144531 173.308594 66.824219 L 173.519531 66.824219 L 173.519531 72.476562 C 173.519531 80.0625 166.957031 85.648438 158.277344 85.648438 C 149.527344 85.648438 144.4375 83.191406 140.015625 78.980469 L 129.882812 88.695312 C 136.671875 95.875 146.90625 99.957031 158.597656 99.957031 C 176.378906 99.957031 188.542969 88.074219 188.542969 72.265625 L 188.542969 15.15625 Z M 325.207031 27.742188 C 333.511719 27.742188 339.296875 32.039062 340.03125 38.535156 L 310.167969 38.535156 C 311.011719 32.039062 316.796875 27.742188 325.207031 27.742188 M 326.8125 61.265625 C 317.484375 61.265625 310.152344 55.257812 309.960938 49.429688 L 355.175781 49.429688 L 355.175781 45.03125 C 355.175781 28.375 343.605469 15.175781 324.890625 15.175781 C 307.226562 15.175781 294.605469 27.539062 294.605469 44.613281 C 294.605469 62.210938 307.917969 73.835938 327.480469 73.835938 C 339.46875 73.835938 348.0625 68.109375 352.550781 62.628906 L 342.003906 55.265625 C 337.3125 59.625 333.058594 61.265625 326.816406 61.265625 M 364.34375 0.0703125 L 379.363281 0.0703125 L 379.445312 38.535156 L 379.648438 38.535156 L 404.800781 15.042969 L 424.9375 15.042969 L 398.871094 39.617188 L 424.832031 73.789062 L 406.855469 73.789062 L 389.023438 49.09375 L 388.820312 49.09375 L 379.363281 58.019531 L 379.363281 73.832031 L 364.34375 73.832031 Z M 364.34375 0.0703125 "/>
</g>
</svg>
