<?xml version="1.0" encoding="UTF-8"?>
<svg xmlns="http://www.w3.org/2000/svg" xmlns:xlink="http://www.w3.org/1999/xlink" width="425px" height="135px" viewBox="0 0 423 135" version="1.1">
<g id="surface1">
<path style=" stroke:none;fill-rule:nonzero;fill:rgb(92.54902%,30.980392%,19.607843%);fill-opacity:1;" d="M 56.613281 -0.144531 C 57.136719 -0.136719 57.664062 -0.132812 58.1875 -0.125 C 60.832031 -0.0859375 62.832031 0.214844 65.328125 1.179688 C 65.71875 1.328125 66.109375 1.480469 66.511719 1.636719 C 66.808594 1.75 67.109375 1.867188 67.414062 1.984375 C 67.414062 2.203125 67.414062 2.421875 67.414062 2.648438 C 67.644531 2.671875 67.875 2.695312 68.113281 2.722656 C 69.320312 3.046875 70.152344 3.679688 71.113281 4.445312 C 71.300781 4.59375 71.488281 4.742188 71.679688 4.894531 C 78.664062 10.5 82.910156 18.109375 84.148438 26.960938 C 84.195312 27.265625 84.238281 27.570312 84.28125 27.882812 C 84.390625 28.625 84.496094 29.367188 84.601562 30.109375 C 84.921875 30.105469 85.246094 30.105469 85.578125 30.101562 C 88.621094 30.074219 91.664062 30.054688 94.710938 30.042969 C 96.273438 30.035156 97.839844 30.027344 99.402344 30.011719 C 100.914062 29.996094 102.425781 29.988281 103.933594 29.984375 C 104.511719 29.980469 105.085938 29.976562 105.664062 29.96875 C 106.46875 29.960938 107.277344 29.960938 108.085938 29.960938 C 108.324219 29.957031 108.558594 29.949219 108.804688 29.945312 C 110.464844 29.960938 111.410156 30.386719 112.691406 31.433594 C 113.984375 34.03125 112.898438 38.792969 112.734375 41.679688 C 112.679688 42.628906 112.628906 43.574219 112.578125 44.519531 C 112.503906 45.867188 112.425781 47.21875 112.351562 48.566406 C 112.15625 52.09375 111.964844 55.621094 111.773438 59.148438 C 111.753906 59.492188 111.734375 59.839844 111.71875 60.195312 C 111.449219 65.164062 111.210938 70.136719 111.039062 75.109375 C 110.761719 82.875 110.347656 90.636719 109.9375 98.394531 C 109.882812 99.441406 109.828125 100.484375 109.773438 101.527344 C 109.6875 103.191406 109.597656 104.851562 109.507812 106.511719 C 109.476562 107.128906 109.441406 107.746094 109.410156 108.363281 C 109.253906 111.347656 109.070312 114.320312 108.734375 117.289062 C 108.710938 117.519531 108.683594 117.75 108.660156 117.984375 C 108.453125 119.691406 108.078125 121.035156 107.070312 122.425781 C 106.9375 122.625 106.800781 122.824219 106.660156 123.027344 C 105.1875 124.960938 103.089844 126.292969 100.792969 127.058594 C 100.289062 127.089844 99.78125 127.101562 99.277344 127.101562 C 98.964844 127.105469 98.652344 127.105469 98.332031 127.105469 C 97.984375 127.105469 97.640625 127.105469 97.289062 127.105469 C 96.738281 127.105469 96.738281 127.105469 96.179688 127.109375 C 94.949219 127.109375 93.722656 127.113281 92.492188 127.113281 C 91.613281 127.113281 90.730469 127.117188 89.851562 127.117188 C 87.460938 127.121094 85.066406 127.125 82.671875 127.125 C 81.179688 127.125 79.683594 127.128906 78.191406 127.128906 C 74.054688 127.132812 69.917969 127.136719 65.785156 127.136719 C 65.519531 127.136719 65.253906 127.136719 64.980469 127.136719 C 64.714844 127.136719 64.449219 127.136719 64.175781 127.136719 C 63.640625 127.136719 63.101562 127.136719 62.5625 127.136719 C 62.296875 127.136719 62.03125 127.136719 61.757812 127.136719 C 57.433594 127.140625 53.109375 127.144531 48.789062 127.152344 C 44.351562 127.160156 39.914062 127.164062 35.476562 127.164062 C 32.984375 127.164062 30.492188 127.167969 28 127.175781 C 25.878906 127.179688 23.757812 127.179688 21.636719 127.179688 C 20.554688 127.175781 19.472656 127.175781 18.386719 127.179688 C 17.214844 127.1875 16.042969 127.183594 14.867188 127.179688 C 14.355469 127.183594 14.355469 127.183594 13.832031 127.1875 C 10.699219 127.167969 9.003906 126.03125 6.742188 123.921875 C 3.476562 120.492188 2.855469 116.332031 2.683594 111.757812 C 2.664062 111.339844 2.644531 110.921875 2.625 110.492188 C 2.578125 109.363281 2.53125 108.234375 2.484375 107.105469 C 2.4375 105.90625 2.386719 104.710938 2.332031 103.511719 C 2.148438 99.230469 1.980469 94.953125 1.820312 90.671875 C 1.808594 90.339844 1.796875 90.007812 1.78125 89.667969 C 1.734375 88.339844 1.683594 87.011719 1.636719 85.683594 C 1.46875 80.953125 1.246094 76.226562 0.988281 71.5 C -0.132812 50.949219 -0.132812 50.949219 -0.199219 41.089844 C -0.203125 40.230469 -0.210938 39.367188 -0.226562 38.503906 C -0.242188 37.328125 -0.242188 36.152344 -0.238281 34.976562 C -0.246094 34.632812 -0.253906 34.289062 -0.257812 33.933594 C -0.253906 33.621094 -0.25 33.308594 -0.246094 32.988281 C -0.246094 32.714844 -0.246094 32.445312 -0.246094 32.167969 C 0.15625 30.96875 0.878906 30.664062 1.984375 30.109375 C 2.902344 29.992188 3.6875 29.941406 4.605469 29.960938 C 4.988281 29.960938 4.988281 29.960938 5.378906 29.960938 C 6.214844 29.960938 7.050781 29.96875 7.886719 29.980469 C 8.46875 29.984375 9.050781 29.984375 9.636719 29.988281 C 11.164062 29.992188 12.691406 30.003906 14.222656 30.019531 C 15.78125 30.03125 17.34375 30.039062 18.90625 30.046875 C 21.96875 30.058594 25.027344 30.082031 28.089844 30.109375 C 28.109375 29.800781 28.125 29.492188 28.144531 29.175781 C 28.167969 28.765625 28.195312 28.355469 28.222656 27.933594 C 28.246094 27.53125 28.269531 27.128906 28.296875 26.710938 C 29.125 18.519531 33.851562 11.007812 39.78125 5.542969 C 44.941406 1.386719 50.09375 -0.34375 56.613281 -0.144531 Z M 48.578125 9.265625 C 48.101562 9.523438 48.101562 9.523438 47.617188 9.785156 C 42.5625 12.773438 39.933594 17.21875 37.671875 22.5 C 37.554688 22.769531 37.433594 23.042969 37.3125 23.320312 C 36.957031 24.304688 36.792969 25.25 36.640625 26.285156 C 36.585938 26.644531 36.53125 27.007812 36.472656 27.378906 C 36.316406 28.605469 36.316406 28.605469 36.351562 30.441406 C 49.65625 30.441406 62.960938 30.441406 76.667969 30.441406 C 76.558594 30.222656 76.449219 30.003906 76.339844 29.78125 C 76.261719 28.996094 76.203125 28.207031 76.152344 27.421875 C 76.125 26.996094 76.097656 26.574219 76.070312 26.136719 C 76.046875 25.808594 76.027344 25.484375 76.007812 25.148438 C 75.789062 25.148438 75.570312 25.148438 75.347656 25.148438 C 75.457031 24.710938 75.566406 24.273438 75.675781 23.824219 C 75.460938 23.824219 75.242188 23.824219 75.015625 23.824219 C 75.125 23.496094 75.234375 23.167969 75.347656 22.832031 C 75.128906 22.832031 74.910156 22.832031 74.6875 22.832031 C 74.796875 22.503906 74.902344 22.175781 75.015625 21.839844 C 74.796875 21.839844 74.582031 21.839844 74.355469 21.839844 C 74.464844 21.511719 74.574219 21.183594 74.6875 20.84375 C 74.578125 20.628906 74.46875 20.410156 74.355469 20.183594 C 74.136719 20.183594 73.917969 20.183594 73.695312 20.183594 C 73.53125 19.558594 73.53125 19.558594 73.363281 18.921875 C 72.066406 15.066406 68.917969 11.664062 65.328125 9.828125 C 59.96875 7.21875 54.042969 6.269531 48.578125 9.265625 Z M 29.410156 22.832031 C 29.742188 23.492188 29.742188 23.492188 29.742188 23.492188 Z M 29.082031 23.824219 C 29.410156 24.816406 29.410156 24.816406 29.410156 24.816406 Z M 28.75 25.476562 C 29.082031 26.800781 29.082031 26.800781 29.082031 26.800781 Z M 28.421875 28.785156 C 28.75 29.449219 28.75 29.449219 28.75 29.449219 Z M 76.339844 29.117188 C 76.667969 29.78125 76.667969 29.78125 76.667969 29.78125 Z M 0.332031 46.324219 C 0.332031 47.960938 0.332031 49.597656 0.332031 51.285156 C 0.441406 51.285156 0.546875 51.285156 0.660156 51.285156 C 0.660156 49.648438 0.660156 48.011719 0.660156 46.324219 C 0.550781 46.324219 0.441406 46.324219 0.332031 46.324219 Z M 40.105469 53.265625 C 37.496094 56.882812 36.460938 60.785156 37.011719 65.183594 C 37.402344 66.613281 37.949219 67.859375 38.664062 69.15625 C 38.886719 69.558594 38.886719 69.558594 39.113281 69.96875 C 41.421875 73.761719 44.925781 75.742188 48.910156 77.425781 C 49.238281 77.425781 49.5625 77.425781 49.902344 77.425781 C 50.011719 77.644531 50.117188 77.863281 50.230469 78.089844 C 50.667969 78.089844 51.105469 78.089844 51.554688 78.089844 C 51.664062 78.304688 51.769531 78.523438 51.882812 78.75 C 52.460938 79.050781 52.460938 79.050781 53.144531 79.289062 C 53.371094 79.375 53.597656 79.460938 53.832031 79.546875 C 54.621094 79.800781 54.621094 79.800781 55.847656 79.742188 C 55.957031 79.960938 56.066406 80.179688 56.179688 80.40625 C 56.398438 80.296875 56.617188 80.1875 56.839844 80.074219 C 56.949219 80.292969 57.058594 80.511719 57.171875 80.734375 C 57.390625 80.625 57.605469 80.515625 57.832031 80.40625 C 57.941406 80.621094 58.050781 80.839844 58.164062 81.066406 C 58.378906 80.957031 58.597656 80.847656 58.824219 80.734375 C 58.933594 80.953125 59.042969 81.171875 59.152344 81.398438 C 59.894531 81.773438 59.894531 81.773438 60.765625 82.101562 C 61.058594 82.21875 61.347656 82.332031 61.652344 82.453125 C 62.472656 82.773438 62.472656 82.773438 63.449219 82.71875 C 63.449219 82.9375 63.449219 83.15625 63.449219 83.382812 C 63.777344 83.554688 64.105469 83.722656 64.441406 83.898438 C 67.34375 85.578125 69.921875 88.050781 70.84375 91.363281 C 71.300781 94.210938 71.101562 96.714844 69.472656 99.148438 C 66.894531 102.257812 63.738281 103.65625 59.816406 104.226562 C 51.890625 104.925781 45.214844 102.890625 38.957031 97.980469 C 38.75 97.859375 38.546875 97.734375 38.335938 97.609375 C 37.109375 98.019531 36.847656 98.472656 36.105469 99.511719 C 35.894531 99.796875 35.683594 100.082031 35.46875 100.375 C 34.953125 101.222656 34.953125 101.222656 35.074219 102.160156 C 35.296875 102.992188 35.296875 102.992188 36.207031 103.339844 C 36.605469 103.453125 36.605469 103.453125 37.011719 103.566406 C 37.011719 103.785156 37.011719 104.003906 37.011719 104.226562 C 39.851562 105.976562 42.65625 107.351562 45.804688 108.453125 C 46.925781 108.859375 46.925781 108.859375 47.625 109.234375 C 48.457031 109.617188 49.195312 109.652344 50.105469 109.707031 C 51.371094 109.792969 52.628906 109.894531 53.886719 110.039062 C 57.550781 110.394531 60.867188 109.980469 64.441406 109.191406 C 64.753906 109.128906 65.066406 109.0625 65.386719 108.996094 C 69.050781 108.097656 72.625 105.15625 74.605469 101.972656 C 76.96875 97.515625 77.429688 92.484375 76.019531 87.609375 C 73.9375 82 68.792969 79.128906 63.628906 76.726562 C 61.285156 75.667969 58.90625 74.777344 56.46875 73.953125 C 51.269531 72.1875 46.515625 70.234375 43.664062 65.292969 C 42.839844 63.59375 42.65625 61.890625 43.210938 60.054688 C 43.816406 58.460938 44.472656 57.214844 45.605469 55.917969 C 45.605469 55.699219 45.605469 55.480469 45.605469 55.257812 C 45.78125 55.167969 45.960938 55.078125 46.144531 54.988281 C 46.714844 54.703125 47.285156 54.410156 47.851562 54.121094 C 48.1875 53.949219 48.523438 53.777344 48.867188 53.601562 C 49.203125 53.433594 49.535156 53.261719 49.878906 53.085938 C 51.761719 52.203125 53.222656 51.867188 55.3125 51.90625 C 55.722656 51.914062 56.136719 51.917969 56.558594 51.925781 C 57.027344 51.9375 57.027344 51.9375 57.5 51.949219 C 57.5 52.058594 57.5 52.167969 57.5 52.28125 C 58.15625 52.269531 58.8125 52.257812 59.46875 52.246094 C 60.144531 52.28125 60.144531 52.28125 61.136719 52.609375 C 61.464844 52.5 61.792969 52.390625 62.128906 52.28125 C 62.292969 52.605469 62.292969 52.605469 62.457031 52.941406 C 63.199219 53.242188 63.199219 53.242188 64.070312 53.480469 C 64.363281 53.566406 64.652344 53.652344 64.957031 53.738281 C 65.785156 53.972656 65.785156 53.972656 66.753906 53.933594 C 66.917969 54.261719 66.917969 54.261719 67.085938 54.59375 C 67.710938 54.980469 68.355469 55.332031 69.007812 55.671875 C 69.355469 55.855469 69.707031 56.042969 70.066406 56.234375 C 71.003906 56.671875 71.003906 56.671875 71.792969 56.363281 C 72.988281 55.449219 73.589844 54.367188 73.941406 52.921875 C 73.660156 51.808594 73.519531 51.703125 72.601562 51.101562 C 72.089844 50.820312 71.574219 50.550781 71.050781 50.292969 C 70.785156 50.15625 70.515625 50.023438 70.238281 49.882812 C 65.644531 47.671875 61.234375 46.59375 56.136719 46.550781 C 55.753906 46.542969 55.371094 46.53125 54.976562 46.523438 C 49.445312 46.480469 43.675781 48.941406 40.105469 53.265625 Z M 52.875 51.949219 C 54.195312 52.28125 54.195312 52.28125 54.195312 52.28125 Z M 74.023438 52.28125 C 74.355469 53.273438 74.355469 53.273438 74.355469 53.273438 Z M 0.660156 54.925781 C 0.660156 55.910156 0.660156 56.890625 0.660156 57.90625 C 0.769531 57.90625 0.878906 57.90625 0.992188 57.90625 C 0.992188 56.921875 0.992188 55.9375 0.992188 54.925781 C 0.882812 54.925781 0.773438 54.925781 0.660156 54.925781 Z M 42.960938 60.882812 C 43.292969 61.542969 43.292969 61.542969 43.292969 61.542969 Z M 0.992188 62.207031 C 0.992188 62.96875 0.992188 63.734375 0.992188 64.523438 C 1.101562 64.523438 1.210938 64.523438 1.320312 64.523438 C 1.320312 63.757812 1.320312 62.992188 1.320312 62.207031 C 1.210938 62.207031 1.105469 62.207031 0.992188 62.207031 Z M 1.320312 69.484375 C 1.320312 70.03125 1.320312 70.578125 1.320312 71.140625 C 1.429688 71.140625 1.539062 71.140625 1.652344 71.140625 C 1.652344 70.59375 1.652344 70.046875 1.652344 69.484375 C 1.542969 69.484375 1.433594 69.484375 1.320312 69.484375 Z M 1.652344 76.433594 C 1.984375 77.757812 1.984375 77.757812 1.984375 77.757812 Z M 1.984375 83.382812 C 2.3125 84.707031 2.3125 84.707031 2.3125 84.707031 Z M 76.667969 89.667969 C 77 90.660156 77 90.660156 77 90.660156 Z M 2.3125 90.332031 C 2.3125 91.859375 2.3125 93.386719 2.3125 94.964844 C 2.421875 94.964844 2.53125 94.964844 2.644531 94.964844 C 2.644531 93.433594 2.644531 91.90625 2.644531 90.332031 C 2.535156 90.332031 2.425781 90.332031 2.3125 90.332031 Z M 77 91.65625 C 77 92.527344 77 93.402344 77 94.300781 C 77.109375 94.300781 77.21875 94.300781 77.328125 94.300781 C 77.328125 93.429688 77.328125 92.554688 77.328125 91.65625 C 77.21875 91.65625 77.113281 91.65625 77 91.65625 Z M 76.667969 95.625 C 77 96.949219 77 96.949219 77 96.949219 Z M 2.644531 97.28125 C 2.644531 99.027344 2.644531 100.773438 2.644531 102.574219 C 2.753906 102.574219 2.863281 102.574219 2.972656 102.574219 C 2.972656 100.828125 2.972656 99.078125 2.972656 97.28125 C 2.863281 97.28125 2.757812 97.28125 2.644531 97.28125 Z M 2.972656 104.558594 C 2.972656 106.195312 2.972656 107.835938 2.972656 109.523438 C 3.082031 109.523438 3.191406 109.523438 3.304688 109.523438 C 3.304688 107.882812 3.304688 106.246094 3.304688 104.558594 C 3.195312 104.558594 3.085938 104.558594 2.972656 104.558594 Z M 3.304688 112.832031 C 3.304688 113.921875 3.304688 115.015625 3.304688 116.140625 C 3.414062 116.140625 3.523438 116.140625 3.636719 116.140625 C 3.636719 115.046875 3.636719 113.957031 3.636719 112.832031 C 3.527344 112.832031 3.417969 112.832031 3.304688 112.832031 Z M 3.304688 112.832031 "/>
<path style=" stroke:none;fill-rule:nonzero;fill:rgb(92.54902%,30.980392%,19.607843%);fill-opacity:1;" d="M 286.226562 70.324219 C 286.617188 70.328125 286.617188 70.328125 287.015625 70.328125 C 287.289062 70.335938 287.558594 70.34375 287.839844 70.355469 C 288.109375 70.355469 288.378906 70.355469 288.660156 70.355469 C 290.671875 70.386719 290.671875 70.386719 291.804688 71.140625 C 291.972656 72 291.972656 72 292.03125 73 C 292.0625 73.5 292.0625 73.5 292.097656 74.007812 C 292.109375 74.261719 292.121094 74.515625 292.132812 74.78125 C 293.101562 74.78125 293.558594 74.277344 294.34375 73.726562 C 298.582031 70.964844 304.042969 69.699219 309.050781 70.609375 C 315.378906 72.0625 320.757812 75.816406 324.25 81.335938 C 327.019531 86.140625 327.761719 92.097656 326.535156 97.515625 C 325.007812 103.070312 321.5 107.535156 316.589844 110.515625 C 316.382812 110.644531 316.179688 110.769531 315.96875 110.902344 C 311.417969 113.460938 305.613281 113.914062 300.582031 112.769531 C 297.488281 111.847656 294.878906 110.578125 292.132812 108.859375 C 292.023438 117.488281 291.917969 126.113281 291.804688 135 C 289.296875 135 286.789062 135 284.203125 135 C 283.8125 133.824219 283.824219 132.757812 283.828125 131.535156 C 283.824219 131.28125 283.824219 131.027344 283.824219 130.765625 C 283.820312 129.914062 283.820312 129.058594 283.820312 128.207031 C 283.816406 127.59375 283.816406 126.984375 283.8125 126.371094 C 283.808594 124.710938 283.808594 123.050781 283.804688 121.390625 C 283.804688 120.351562 283.804688 119.316406 283.800781 118.277344 C 283.796875 115.035156 283.796875 111.789062 283.792969 108.546875 C 283.792969 104.800781 283.785156 101.050781 283.777344 97.304688 C 283.769531 94.410156 283.765625 91.515625 283.765625 88.621094 C 283.765625 86.890625 283.761719 85.160156 283.757812 83.429688 C 283.753906 81.804688 283.75 80.179688 283.753906 78.550781 C 283.753906 77.953125 283.753906 77.355469 283.75 76.757812 C 283.746094 75.945312 283.746094 75.128906 283.75 74.316406 C 283.75 74.078125 283.746094 73.839844 283.742188 73.597656 C 283.753906 72.570312 283.820312 71.890625 284.335938 70.992188 C 285 70.347656 285.3125 70.316406 286.226562 70.324219 Z M 299.074219 80.074219 C 298.800781 80.222656 298.53125 80.367188 298.25 80.519531 C 294.789062 82.609375 293.070312 85.886719 291.933594 89.683594 C 291.160156 93.585938 292.476562 97.261719 294.574219 100.527344 C 296.449219 103.0625 299.316406 104.558594 302.378906 105.21875 C 306.59375 105.609375 310.335938 105.46875 313.859375 102.910156 C 316.808594 100.441406 318.679688 97.4375 319.128906 93.597656 C 319.289062 91.605469 319.128906 89.667969 318.902344 87.683594 C 318.683594 87.683594 318.464844 87.683594 318.242188 87.683594 C 318.25 87.425781 318.253906 87.164062 318.261719 86.898438 C 318.304688 86.035156 318.304688 86.035156 317.910156 85.367188 C 317.691406 85.367188 317.476562 85.367188 317.25 85.367188 C 317.1875 85.085938 317.128906 84.808594 317.0625 84.519531 C 315.738281 81.34375 312.644531 80.042969 309.648438 78.75 C 306.160156 77.550781 302.191406 78.351562 299.074219 80.074219 Z M 319.234375 90.660156 C 319.5625 91.65625 319.5625 91.65625 319.5625 91.65625 Z M 319.234375 92.648438 C 319.5625 93.640625 319.5625 93.640625 319.5625 93.640625 Z M 304.691406 105.550781 C 304.691406 105.660156 304.691406 105.769531 304.691406 105.882812 C 305.347656 105.882812 306 105.882812 306.675781 105.882812 C 306.675781 105.773438 306.675781 105.664062 306.675781 105.550781 C 306.019531 105.550781 305.367188 105.550781 304.691406 105.550781 Z M 304.691406 105.550781 "/>
<path style=" stroke:none;fill-rule:nonzero;fill:rgb(92.54902%,30.980392%,19.607843%);fill-opacity:1;" d="M 168.539062 46.984375 C 168.996094 47.144531 169.460938 47.296875 169.921875 47.441406 C 171.496094 47.949219 172.988281 48.601562 174.488281 49.300781 C 174.488281 49.519531 174.488281 49.738281 174.488281 49.964844 C 174.664062 49.984375 174.84375 50.003906 175.023438 50.023438 C 176.203125 50.429688 176.917969 51.074219 177.792969 51.949219 C 178 53.09375 177.828125 53.542969 177.226562 54.550781 C 176.863281 55.023438 176.863281 55.023438 176.492188 55.503906 C 176.128906 55.984375 176.128906 55.984375 175.757812 56.472656 C 175.148438 57.242188 175.148438 57.242188 174.816406 57.574219 C 173.058594 57.769531 171.925781 57.191406 170.4375 56.351562 C 165.417969 53.714844 159.699219 52.167969 154.0625 53.589844 C 153.003906 53.972656 152.023438 54.410156 151.023438 54.925781 C 150.765625 55.046875 150.507812 55.164062 150.246094 55.289062 C 147.8125 56.570312 146.636719 59.035156 145.738281 61.542969 C 145.378906 64.101562 146.308594 66.042969 147.71875 68.160156 C 150.378906 71.003906 154.289062 72.464844 157.964844 73.457031 C 158.703125 73.671875 159.4375 73.894531 160.175781 74.117188 C 160.6875 74.269531 160.6875 74.269531 161.210938 74.429688 C 162.363281 74.8125 163.460938 75.28125 164.574219 75.773438 C 164.972656 75.945312 165.375 76.113281 165.789062 76.292969 C 166.382812 76.546875 166.382812 76.546875 166.988281 76.804688 C 167.390625 76.976562 167.792969 77.148438 168.203125 77.324219 C 168.761719 77.566406 169.316406 77.816406 169.859375 78.089844 C 169.859375 78.304688 169.859375 78.523438 169.859375 78.75 C 170.214844 78.792969 170.214844 78.792969 170.574219 78.839844 C 172.359375 79.300781 173.714844 80.613281 175.148438 81.726562 C 175.367188 81.890625 175.582031 82.050781 175.804688 82.214844 C 178.6875 84.484375 180.78125 87.703125 181.425781 91.324219 C 181.949219 96.488281 181.207031 101.261719 178.121094 105.550781 C 177.964844 105.777344 177.804688 106.003906 177.644531 106.238281 C 174.167969 110.699219 168.363281 112.710938 162.953125 113.402344 C 153.996094 114.203125 144.707031 111.765625 137.582031 106.238281 C 136.863281 105.597656 136.292969 105.066406 135.824219 104.226562 C 135.875 102.945312 136.710938 101.90625 137.390625 100.855469 C 137.617188 100.503906 137.839844 100.152344 138.070312 99.789062 C 138.796875 98.933594 138.796875 98.933594 139.609375 98.585938 C 140.707031 98.609375 141.167969 98.9375 142.058594 99.574219 C 143.554688 100.582031 145.058594 101.496094 146.644531 102.347656 C 146.949219 102.511719 146.949219 102.511719 147.261719 102.683594 C 148.59375 103.394531 149.894531 103.84375 151.355469 104.226562 C 151.605469 104.34375 151.859375 104.460938 152.117188 104.578125 C 156.824219 106.222656 163.277344 105.53125 167.691406 103.441406 C 170.136719 102.101562 171.808594 100.601562 172.835938 97.941406 C 173.457031 95.128906 173.230469 92.476562 171.800781 89.957031 C 168.835938 85.679688 163.527344 83.757812 158.695312 82.351562 C 156.777344 81.789062 154.914062 81.113281 153.046875 80.40625 C 152.765625 80.296875 152.484375 80.191406 152.191406 80.082031 C 146.003906 77.710938 140.589844 73.941406 137.789062 67.722656 C 136.71875 64.703125 136.980469 59.941406 138.136719 56.996094 C 140.871094 51.691406 145.03125 48.027344 150.710938 46.191406 C 155.941406 44.703125 163.621094 44.28125 168.539062 46.984375 Z M 137.804688 59.226562 C 138.136719 59.890625 138.136719 59.890625 138.136719 59.890625 Z M 137.804688 66.175781 C 138.136719 66.839844 138.136719 66.839844 138.136719 66.839844 Z M 137.804688 66.175781 "/>
<path style=" stroke:none;fill-rule:nonzero;fill:rgb(92.54902%,30.980392%,19.607843%);fill-opacity:1;" d="M 190.390625 45.242188 C 190.652344 45.242188 190.914062 45.242188 191.179688 45.242188 C 191.453125 45.242188 191.722656 45.246094 192.003906 45.25 C 192.410156 45.246094 192.410156 45.246094 192.824219 45.242188 C 193.085938 45.242188 193.34375 45.242188 193.613281 45.242188 C 193.851562 45.242188 194.089844 45.246094 194.332031 45.246094 C 194.976562 45.332031 194.976562 45.332031 195.96875 45.992188 C 196.074219 46.910156 196.113281 47.757812 196.109375 48.679688 C 196.113281 48.957031 196.117188 49.234375 196.121094 49.519531 C 196.132812 50.441406 196.132812 51.363281 196.136719 52.28125 C 196.144531 52.917969 196.148438 53.554688 196.15625 54.191406 C 196.171875 55.871094 196.179688 57.550781 196.1875 59.230469 C 196.199219 60.941406 196.214844 62.652344 196.230469 64.367188 C 196.257812 67.726562 196.28125 71.085938 196.296875 74.449219 C 196.679688 74.265625 197.0625 74.082031 197.457031 73.894531 C 197.964844 73.652344 198.472656 73.410156 198.980469 73.167969 C 199.355469 72.984375 199.355469 72.984375 199.742188 72.800781 C 205.523438 70.054688 210.570312 70.441406 216.457031 72.464844 C 216.457031 72.679688 216.457031 72.898438 216.457031 73.125 C 216.824219 73.175781 216.824219 73.175781 217.195312 73.226562 C 218.78125 73.625 219.851562 74.738281 221.082031 75.773438 C 221.335938 75.96875 221.585938 76.160156 221.84375 76.363281 C 224.753906 78.730469 226.828125 82.035156 227.691406 85.699219 C 227.75 85.933594 227.808594 86.164062 227.867188 86.40625 C 228.0625 87.585938 228.066406 88.746094 228.0625 89.941406 C 228.0625 90.195312 228.0625 90.449219 228.0625 90.714844 C 228.0625 91.554688 228.058594 92.394531 228.054688 93.234375 C 228.054688 93.816406 228.054688 94.398438 228.054688 94.984375 C 228.054688 96.515625 228.050781 98.050781 228.046875 99.582031 C 228.042969 101.148438 228.042969 102.714844 228.039062 104.28125 C 228.035156 107.351562 228.03125 110.421875 228.023438 113.492188 C 226.886719 113.53125 225.75 113.554688 224.617188 113.574219 C 224.292969 113.585938 223.96875 113.597656 223.636719 113.609375 C 223.328125 113.613281 223.019531 113.617188 222.699219 113.621094 C 222.414062 113.628906 222.128906 113.636719 221.832031 113.644531 C 221.082031 113.492188 221.082031 113.492188 220.496094 112.972656 C 219.941406 111.867188 219.964844 110.992188 219.960938 109.757812 C 219.957031 109.394531 219.957031 109.394531 219.953125 109.027344 C 219.945312 108.234375 219.945312 107.441406 219.945312 106.644531 C 219.941406 106.09375 219.9375 105.542969 219.933594 104.988281 C 219.921875 103.539062 219.914062 102.085938 219.910156 100.632812 C 219.902344 98.304688 219.886719 95.980469 219.871094 93.652344 C 219.863281 92.839844 219.863281 92.027344 219.863281 91.214844 C 219.859375 90.71875 219.855469 90.21875 219.851562 89.722656 C 219.847656 89.070312 219.847656 89.070312 219.847656 88.40625 C 219.84375 87.300781 219.84375 87.300781 219.101562 86.359375 C 218.859375 85.832031 218.617188 85.300781 218.378906 84.769531 C 216.878906 81.773438 214.554688 80.585938 211.5 79.410156 C 208.195312 78.398438 205.148438 79.277344 202.160156 80.777344 C 199.097656 82.539062 197.507812 85.257812 196.449219 88.582031 C 196.242188 89.617188 196.246094 90.617188 196.234375 91.671875 C 196.234375 91.902344 196.230469 92.132812 196.226562 92.375 C 196.222656 92.875 196.214844 93.378906 196.210938 93.878906 C 196.207031 94.675781 196.195312 95.46875 196.1875 96.261719 C 196.164062 98.230469 196.144531 100.203125 196.125 102.171875 C 196.109375 103.839844 196.089844 105.507812 196.070312 107.175781 C 196.0625 107.957031 196.054688 108.742188 196.046875 109.527344 C 196.042969 110.003906 196.035156 110.480469 196.03125 110.957031 C 196.023438 111.585938 196.023438 111.585938 196.019531 112.226562 C 195.96875 113.160156 195.96875 113.160156 195.636719 113.492188 C 195.125 113.527344 194.613281 113.535156 194.097656 113.535156 C 193.632812 113.539062 193.632812 113.539062 193.15625 113.539062 C 192.832031 113.535156 192.503906 113.535156 192.167969 113.535156 C 191.839844 113.535156 191.515625 113.535156 191.175781 113.539062 C 190.867188 113.539062 190.554688 113.535156 190.238281 113.535156 C 189.949219 113.535156 189.664062 113.535156 189.367188 113.535156 C 188.699219 113.492188 188.699219 113.492188 188.367188 113.160156 C 188.328125 112.296875 188.3125 111.441406 188.308594 110.578125 C 188.304688 110.300781 188.304688 110.027344 188.300781 109.746094 C 188.292969 108.820312 188.289062 107.894531 188.285156 106.96875 C 188.277344 106.308594 188.273438 105.648438 188.269531 104.988281 C 188.253906 103.1875 188.246094 101.386719 188.234375 99.585938 C 188.226562 98.464844 188.222656 97.339844 188.214844 96.21875 C 188.191406 92.707031 188.171875 89.199219 188.152344 85.6875 C 188.132812 81.628906 188.105469 77.570312 188.074219 73.511719 C 188.054688 70.378906 188.035156 67.246094 188.019531 64.113281 C 188.007812 62.238281 188 60.367188 187.984375 58.492188 C 187.96875 56.730469 187.960938 54.96875 187.953125 53.207031 C 187.949219 52.558594 187.945312 51.914062 187.941406 51.265625 C 187.929688 50.382812 187.929688 49.5 187.929688 48.621094 C 187.925781 48.359375 187.921875 48.101562 187.914062 47.835938 C 187.917969 47.121094 187.917969 47.121094 188.035156 45.992188 C 189.042969 45.320312 189.257812 45.246094 190.390625 45.242188 Z M 220.09375 88.34375 C 220.421875 89.007812 220.421875 89.007812 220.421875 89.007812 Z M 220.09375 88.34375 "/>
<path style=" stroke:none;fill-rule:nonzero;fill:rgb(92.54902%,30.980392%,19.607843%);fill-opacity:1;" d="M 402.550781 70.292969 C 402.851562 70.292969 403.152344 70.292969 403.460938 70.292969 C 409.214844 70.449219 413.726562 73.460938 417.710938 77.425781 C 421.628906 81.570312 423.046875 86.671875 423.121094 92.230469 C 423 93.308594 423 93.308594 422.578125 93.863281 C 421.886719 94.394531 421.550781 94.425781 420.683594 94.421875 C 420.28125 94.421875 420.28125 94.421875 419.871094 94.425781 C 419.433594 94.417969 419.433594 94.417969 418.984375 94.414062 C 418.675781 94.414062 418.363281 94.414062 418.046875 94.414062 C 417.019531 94.414062 415.996094 94.40625 414.972656 94.398438 C 414.261719 94.398438 413.550781 94.394531 412.84375 94.394531 C 410.972656 94.390625 409.101562 94.378906 407.234375 94.371094 C 405.328125 94.359375 403.417969 94.355469 401.511719 94.351562 C 397.769531 94.339844 394.027344 94.324219 390.285156 94.300781 C 390.480469 94.875 390.683594 95.449219 390.886719 96.019531 C 390.996094 96.339844 391.109375 96.660156 391.222656 96.988281 C 392.488281 100.140625 394.5 102.125 397.511719 103.601562 C 397.746094 103.699219 397.976562 103.796875 398.214844 103.898438 C 398.488281 104.015625 398.757812 104.136719 399.039062 104.257812 C 400.75 104.703125 402.421875 104.683594 404.183594 104.683594 C 404.554688 104.683594 404.921875 104.683594 405.304688 104.683594 C 409.71875 104.617188 413.328125 103.507812 416.746094 100.625 C 417.382812 100.257812 417.382812 100.257812 418.074219 100.3125 C 419.121094 100.769531 419.691406 101.679688 420.355469 102.574219 C 420.511719 102.769531 420.667969 102.960938 420.828125 103.160156 C 420.980469 103.355469 421.128906 103.550781 421.285156 103.753906 C 421.492188 104.019531 421.492188 104.019531 421.707031 104.292969 C 422.121094 105.113281 422.136719 105.636719 422.007812 106.542969 C 419.578125 109.90625 414.558594 111.691406 410.621094 112.355469 C 402.8125 113.242188 395.871094 112.625 389.5625 107.640625 C 385.9375 104.503906 382.882812 100.128906 382.445312 95.28125 C 382.417969 94.632812 382.417969 94.632812 382.023438 94.300781 C 381.570312 88.542969 382.765625 83.117188 386.375 78.492188 C 387.097656 77.660156 387.847656 76.878906 388.632812 76.101562 C 388.835938 75.894531 389.035156 75.683594 389.246094 75.464844 C 392.71875 72.113281 397.777344 70.277344 402.550781 70.292969 Z M 393.011719 82.371094 C 392.011719 83.632812 391.339844 84.777344 390.945312 86.359375 C 391.566406 87.125 391.566406 87.125 392.574219 87.101562 C 392.992188 87.101562 393.40625 87.097656 393.835938 87.097656 C 394.179688 87.097656 394.179688 87.097656 394.527344 87.097656 C 395.285156 87.097656 396.042969 87.09375 396.800781 87.085938 C 397.328125 87.085938 397.851562 87.085938 398.378906 87.082031 C 399.761719 87.082031 401.144531 87.074219 402.527344 87.066406 C 403.9375 87.0625 405.347656 87.058594 406.761719 87.054688 C 409.53125 87.046875 412.300781 87.035156 415.070312 87.023438 C 414.710938 86.332031 414.351562 85.640625 413.988281 84.953125 C 413.789062 84.570312 413.585938 84.183594 413.378906 83.789062 C 411.691406 80.902344 408.617188 79.214844 405.488281 78.207031 C 400.847656 77.378906 396.171875 78.839844 393.011719 82.371094 Z M 383.34375 84.375 C 383.675781 85.035156 383.675781 85.035156 383.675781 85.035156 Z M 404.492188 105.21875 C 405.816406 105.550781 405.816406 105.550781 405.816406 105.550781 Z M 404.492188 105.21875 "/>
<path style=" stroke:none;fill-rule:nonzero;fill:rgb(92.54902%,30.980392%,19.607843%);fill-opacity:1;" d="M 360.519531 71.285156 C 360.863281 71.414062 360.863281 71.414062 361.210938 71.546875 C 361.980469 71.847656 362.75 72.152344 363.515625 72.464844 C 363.515625 72.679688 363.515625 72.898438 363.515625 73.125 C 363.707031 73.164062 363.902344 73.199219 364.101562 73.238281 C 367.546875 74.253906 370.515625 78.222656 372.273438 81.144531 C 374.339844 84.957031 375.234375 88.972656 374.75 93.308594 C 374.253906 93.96875 373.957031 94.261719 373.144531 94.429688 C 372.910156 94.429688 372.675781 94.433594 372.4375 94.433594 C 372.035156 94.441406 372.035156 94.441406 371.625 94.445312 C 371.183594 94.445312 371.183594 94.445312 370.734375 94.445312 C 370.425781 94.449219 370.117188 94.453125 369.796875 94.453125 C 368.773438 94.464844 367.75 94.46875 366.722656 94.472656 C 366.011719 94.476562 365.304688 94.480469 364.59375 94.488281 C 362.722656 94.503906 360.855469 94.515625 358.984375 94.523438 C 357.078125 94.53125 355.171875 94.546875 353.265625 94.5625 C 349.519531 94.589844 345.777344 94.613281 342.035156 94.632812 C 342.289062 95.265625 342.546875 95.898438 342.808594 96.527344 C 342.949219 96.878906 343.09375 97.230469 343.242188 97.59375 C 344.726562 100.953125 347.230469 102.597656 350.492188 104.121094 C 352.285156 104.761719 354.09375 104.722656 355.976562 104.703125 C 356.34375 104.703125 356.710938 104.699219 357.089844 104.699219 C 359.78125 104.644531 362.03125 104.351562 364.507812 103.234375 C 364.761719 103.128906 365.015625 103.019531 365.277344 102.910156 C 366.410156 102.394531 367.300781 101.8125 368.226562 100.980469 C 369.132812 100.257812 369.132812 100.257812 369.777344 100.300781 C 371.492188 101.027344 373.003906 103.238281 373.761719 104.890625 C 373.882812 105.898438 373.886719 106.367188 373.285156 107.203125 C 367.585938 112.265625 360.59375 112.875 353.273438 112.566406 C 347.410156 112.171875 342.652344 109.4375 338.832031 105.070312 C 336.324219 102.097656 333.859375 98.03125 334.105469 93.96875 C 333.996094 93.96875 333.886719 93.96875 333.773438 93.96875 C 333.660156 90.890625 333.75 88.304688 334.765625 85.367188 C 334.890625 84.929688 334.890625 84.929688 335.019531 84.484375 C 336.773438 78.898438 340.953125 74.839844 346 72.132812 C 350.367188 70.03125 355.9375 69.53125 360.519531 71.285156 Z M 348.976562 79.410156 C 348.6875 79.554688 348.402344 79.699219 348.105469 79.847656 C 345.285156 81.386719 343.808594 83.386719 342.695312 86.359375 C 343.316406 87.125 343.316406 87.125 344.328125 87.101562 C 344.742188 87.101562 345.15625 87.097656 345.585938 87.097656 C 345.929688 87.097656 345.929688 87.097656 346.28125 87.097656 C 347.039062 87.097656 347.796875 87.09375 348.554688 87.085938 C 349.078125 87.085938 349.605469 87.085938 350.128906 87.082031 C 351.511719 87.082031 352.894531 87.074219 354.277344 87.066406 C 355.691406 87.0625 357.101562 87.058594 358.511719 87.054688 C 361.28125 87.046875 364.050781 87.035156 366.820312 87.023438 C 366.613281 86.542969 366.40625 86.066406 366.199219 85.589844 C 366.082031 85.324219 365.96875 85.058594 365.847656 84.785156 C 364.253906 81.398438 361.203125 79.765625 357.898438 78.417969 C 354.878906 77.433594 351.722656 77.976562 348.976562 79.410156 Z M 334.105469 89.007812 C 334.433594 90 334.433594 90 334.433594 90 Z M 356.246094 105.21875 C 357.566406 105.550781 357.566406 105.550781 357.566406 105.550781 Z M 356.246094 105.21875 "/>
<path style=" stroke:none;fill-rule:nonzero;fill:rgb(92.54902%,30.980392%,19.607843%);fill-opacity:1;" d="M 268.339844 74.449219 C 273.09375 78.191406 276.167969 82.945312 277.140625 88.964844 C 277.1875 89.421875 277.226562 89.875 277.261719 90.332031 C 277.28125 90.542969 277.300781 90.753906 277.316406 90.972656 C 277.546875 96.480469 275.578125 101.632812 272.027344 105.800781 C 267.871094 110.128906 262.703125 112.464844 256.726562 112.65625 C 250.644531 112.714844 245.519531 111.261719 241.023438 106.988281 C 237.769531 103.730469 235.132812 100.261719 234.300781 95.625 C 234.246094 95.375 234.191406 95.125 234.132812 94.871094 C 233.175781 89.523438 234.765625 84.246094 237.605469 79.742188 C 238.515625 78.535156 239.488281 77.472656 240.582031 76.433594 C 240.765625 76.25 240.953125 76.0625 241.144531 75.875 C 248.742188 68.804688 260.046875 68.597656 268.339844 74.449219 Z M 245.269531 82.703125 C 242.832031 85.808594 241.457031 89.328125 241.902344 93.308594 C 242.75 97.269531 244.445312 100.585938 247.851562 102.90625 C 248.292969 103.019531 248.730469 103.128906 249.171875 103.234375 C 249.335938 103.5625 249.335938 103.5625 249.503906 103.898438 C 249.722656 104.007812 249.941406 104.117188 250.164062 104.226562 C 250.492188 104.0625 250.492188 104.0625 250.824219 103.898438 C 250.988281 104.226562 250.988281 104.226562 251.15625 104.558594 C 251.484375 104.394531 251.484375 104.394531 251.816406 104.226562 C 251.980469 104.554688 251.980469 104.554688 252.148438 104.890625 C 257.152344 105.046875 261.582031 104.828125 265.453125 101.214844 C 268.933594 97.476562 269.199219 94.042969 269.054688 89.128906 C 268.957031 87.679688 268.59375 86.359375 268.011719 85.035156 C 267.792969 85.035156 267.574219 85.035156 267.347656 85.035156 C 267.246094 84.699219 267.246094 84.699219 267.144531 84.355469 C 265.605469 81.066406 262.644531 79.722656 259.417969 78.417969 C 254.363281 76.972656 248.804688 78.898438 245.269531 82.703125 Z M 269.332031 90 C 269.332031 91.199219 269.332031 92.402344 269.332031 93.640625 C 269.441406 93.640625 269.550781 93.640625 269.664062 93.640625 C 269.664062 92.4375 269.664062 91.238281 269.664062 90 C 269.554688 90 269.445312 90 269.332031 90 Z M 269.332031 90 "/>
<path style=" stroke:none;fill-rule:nonzero;fill:rgb(92.54902%,30.980392%,19.607843%);fill-opacity:1;" d="M 187.707031 46.65625 C 187.816406 46.65625 187.925781 46.65625 188.035156 46.65625 C 188.035156 68.273438 188.035156 89.894531 188.035156 112.167969 C 187.925781 112.167969 187.820312 112.167969 187.707031 112.167969 C 187.707031 90.550781 187.707031 68.929688 187.707031 46.65625 Z M 187.707031 46.65625 "/>
<path style=" stroke:none;fill-rule:nonzero;fill:rgb(92.54902%,30.980392%,19.607843%);fill-opacity:1;" d="M 137.144531 60.550781 C 137.253906 60.550781 137.363281 60.550781 137.476562 60.550781 C 137.476562 62.082031 137.476562 63.609375 137.476562 65.183594 C 137.367188 65.183594 137.257812 65.183594 137.144531 65.183594 C 137.144531 63.65625 137.144531 62.125 137.144531 60.550781 Z M 137.144531 60.550781 "/>
<path style=" stroke:none;fill-rule:nonzero;fill:rgb(92.54902%,30.980392%,19.607843%);fill-opacity:1;" d="M 401.519531 70.148438 C 402.390625 70.148438 403.265625 70.148438 404.164062 70.148438 C 404.164062 70.257812 404.164062 70.367188 404.164062 70.476562 C 403.289062 70.476562 402.417969 70.476562 401.519531 70.476562 C 401.519531 70.367188 401.519531 70.257812 401.519531 70.148438 Z M 401.519531 70.148438 "/>
<path style=" stroke:none;fill-rule:nonzero;fill:rgb(92.54902%,30.980392%,19.607843%);fill-opacity:1;" d="M 353.269531 70.148438 C 354.144531 70.148438 355.015625 70.148438 355.914062 70.148438 C 355.914062 70.257812 355.914062 70.367188 355.914062 70.476562 C 355.042969 70.476562 354.171875 70.476562 353.269531 70.476562 C 353.269531 70.367188 353.269531 70.257812 353.269531 70.148438 Z M 353.269531 70.148438 "/>
<path style=" stroke:none;fill-rule:nonzero;fill:rgb(92.54902%,30.980392%,19.607843%);fill-opacity:1;" d="M 254.460938 70.148438 C 255.332031 70.148438 256.207031 70.148438 257.105469 70.148438 C 257.105469 70.257812 257.105469 70.367188 257.105469 70.476562 C 256.230469 70.476562 255.359375 70.476562 254.460938 70.476562 C 254.460938 70.367188 254.460938 70.257812 254.460938 70.148438 Z M 254.460938 70.148438 "/>
</g>
</svg>
